<svg width="35" height="35" viewBox="0 0 35 35" fill="none" xmlns="http://www.w3.org/2000/svg">
<circle cx="17.3826" cy="17.156" r="16.656" stroke="white" stroke-opacity="0.7"/>
<path opacity="0.9" d="M17.0449 12.5742C17.4648 12.5742 17.8164 12.2227 17.8164 11.8125V8.9707L17.7578 7.50586L18.4121 8.19922L19.8965 9.78125C20.0332 9.9375 20.2383 10.0156 20.4238 10.0156C20.8242 10.0156 21.1367 9.72266 21.1367 9.32227C21.1367 9.11719 21.0488 8.96094 20.9023 8.81445L17.6016 5.63086C17.4062 5.43555 17.2402 5.36719 17.0449 5.36719C16.8398 5.36719 16.6738 5.43555 16.4785 5.63086L13.1777 8.81445C13.0312 8.96094 12.9434 9.11719 12.9434 9.32227C12.9434 9.72266 13.2363 10.0156 13.6465 10.0156C13.832 10.0156 14.0469 9.9375 14.1836 9.78125L15.668 8.19922L16.3223 7.50586L16.2637 8.9707V11.8125C16.2637 12.2227 16.625 12.5742 17.0449 12.5742ZM11.4395 27.4082H22.6406C24.6816 27.4082 25.707 26.3926 25.707 24.3809V14.8301C25.707 12.8184 24.6816 11.8027 22.6406 11.8027H18.041V19C18.041 19.5371 17.582 19.9766 17.0449 19.9766C16.498 19.9766 16.0391 19.5371 16.0391 19V11.8027H11.4395C9.39844 11.8027 8.37305 12.8184 8.37305 14.8301V24.3809C8.37305 26.3926 9.39844 27.4082 11.4395 27.4082Z" fill="#FAFAFA"/>
</svg>
