<svg width="38" height="38" viewBox="0 0 38 38" fill="none" xmlns="http://www.w3.org/2000/svg">
<rect x="0.5" y="0.5" width="37" height="37" rx="18.5" fill="white"/>
<circle cx="19" cy="19" r="16.625" fill="#2AC28B"/>
<path d="M17.4141 26.4453C17.9453 26.4453 18.3594 26.2422 18.6406 25.8125L25.9219 14.6797C26.125 14.3672 26.2109 14.0781 26.2109 13.8047C26.2109 13.0703 25.6641 12.5391 24.9141 12.5391C24.3984 12.5391 24.0781 12.7266 23.7656 13.2188L17.375 23.2969L14.1328 19.2734C13.8438 18.9297 13.5312 18.7734 13.0938 18.7734C12.3359 18.7734 11.7891 19.3125 11.7891 20.0469C11.7891 20.375 11.8906 20.6641 12.1719 20.9844L16.2031 25.8672C16.5391 26.2656 16.9141 26.4453 17.4141 26.4453Z" fill="white"/>
<rect x="0.5" y="0.5" width="37" height="37" rx="18.5" stroke="#D1D1D6"/>
</svg>
